<svg xmlns="http://www.w3.org/2000/svg" viewBox="0 0 200 200" width="200" height="200">
  <!-- Fond -->
  <circle cx="100" cy="100" r="100" fill="#f0f0f0"/>
  
  <!-- Visage -->
  <ellipse cx="100" cy="80" rx="35" ry="40" fill="#f4c2a1"/>
  
  <!-- Cheveux -->
  <path d="M70 60 Q75 40 90 35 Q100 30 110 35 Q125 40 130 60 L130 75 Q125 65 115 60 Q100 50 85 60 Q75 65 70 75 Z" fill="#8b4513"/>
  
  <!-- Yeux -->
  <ellipse cx="88" cy="75" rx="4" ry="3" fill="white"/>
  <ellipse cx="112" cy="75" rx="4" ry="3" fill="white"/>
  <circle cx="88" cy="75" r="2" fill="#333"/>
  <circle cx="112" cy="75" r="2" fill="#333"/>
  
  <!-- Nez -->
  <ellipse cx="100" cy="85" rx="2" ry="3" fill="#e8a87c"/>
  
  <!-- Bouche -->
  <path d="M95 95 Q100 100 105 95" stroke="#cc6666" stroke-width="2" fill="none"/>
  
  <!-- Corps/chemise -->
  <path d="M70 140 Q70 130 80 125 Q90 120 100 120 Q110 120 120 125 Q130 130 130 140 L130 200 L70 200 Z" fill="#87ceeb"/>
  
  <!-- Col -->
  <path d="M90 120 Q100 115 110 120 L105 130 Q100 125 95 130 Z" fill="white"/>
</svg>